<?xml version="1.0" encoding="UTF-8"?>
<!DOCTYPE svg PUBLIC "-//W3C//DTD SVG 1.1//EN" "http://www.w3.org/Graphics/SVG/1.1/DTD/svg11.dtd">
<!-- Creator: CorelDRAW 2020 (64-Bit) -->
<svg xmlns="http://www.w3.org/2000/svg" xml:space="preserve" width="205.186mm" height="129.67mm" version="1.1" style="shape-rendering:geometricPrecision; text-rendering:geometricPrecision; image-rendering:optimizeQuality; fill-rule:evenodd; clip-rule:evenodd"
viewBox="0 0 20518.62 12966.96"
 xmlns:xlink="http://www.w3.org/1999/xlink"
 xmlns:xodm="http://www.corel.com/coreldraw/odm/2003">
 <defs>
  <style type="text/css">
   <![CDATA[
    .fil0 {fill:#373435}
    .fil2 {fill:#E7447E}
    .fil12 {fill:#DD85A1}
    .fil15 {fill:#DBE5B8}
    .fil11 {fill:#D2406A}
    .fil1 {fill:#C4DA89}
    .fil7 {fill:#C18BB9}
    .fil6 {fill:#B480B3}
    .fil14 {fill:#9EB268}
    .fil4 {fill:#955599}
    .fil3 {fill:#71B57A}
    .fil8 {fill:#59A099}
    .fil9 {fill:#6C4370}
    .fil5 {fill:#4B7C75}
    .fil13 {fill:#468B57}
    .fil10 {fill:#3E6964}
   ]]>
  </style>
 </defs>
 <g id="Layer_x0020_1">
  <metadata id="CorelCorpID_0Corel-Layer"/>
  <g id="_1989503865680">
   <path class="fil0" d="M8800.79 64.21c-238.76,187.96 -426.72,599.44 -500.38,1115.06 -22.86,149.86 -22.86,149.86 -398.78,134.62 -919.48,-30.48 -1470.66,165.1 -1676.4,591.82 -160.02,335.28 -203.2,622.3 -149.86,1018.54 68.58,502.92 48.26,866.14 -50.8,1049.02 -86.36,154.94 -81.28,154.94 -15.24,223.52 68.58,73.66 269.24,99.06 388.62,45.72 30.48,-15.24 33.02,-7.62 22.86,111.76 -93.98,927.1 -68.58,1714.5 73.66,2740.66 208.28,1496.06 1122.68,2341.88 2517.14,2341.88 223.52,0 223.52,0 193.04,45.72 -96.52,149.86 -238.76,162.56 -561.34,53.34 -223.52,-78.74 -307.34,-91.44 -208.28,-38.1 20.32,15.24 93.98,68.58 154.94,119.38 299.72,248.92 548.64,226.06 795.02,-73.66 121.92,-149.86 104.14,-142.24 449.58,-187.96 355.6,-48.26 718.82,-139.7 1061.72,-254 30.48,-7.62 261.62,170.18 261.62,200.66 0,7.62 -43.18,30.48 -88.9,38.1 -142.24,38.1 -299.72,134.62 -441.96,261.62 -187.96,170.18 -205.74,231.14 -208.28,515.62 -5.08,487.68 -121.92,810.26 -426.72,1176.02 -180.34,215.9 -187.96,226.06 -187.96,322.58 0,157.48 -149.86,195.58 -734.06,215.9 -777.24,27.94 -1267.46,185.42 -1638.3,538.48 -241.3,231.14 -330.2,401.32 -690.88,510.54 -111.76,35.56 -111.76,38.1 -43.18,60.96 287.02,129.54 708.66,-276.86 924.56,-452.12 414.02,-340.36 782.32,-441.96 1524,-447.04 447.04,-2.54 464.82,-5.08 604.52,-53.34 213.36,-71.12 406.4,-71.12 629.92,-88.9 718.82,-55.88 1043.94,383.54 1676.4,500.38 383.54,71.12 795.02,-154.94 980.44,-546.1 121.92,-254 134.62,-358.14 134.62,-911.86 0,-53.34 576.58,-15.24 810.26,58.42 335.28,106.68 454.66,22.86 327.66,-231.14 -127,-256.54 360.68,78.74 360.68,-218.44 0,-50.8 73.66,-55.88 373.38,-20.32 350.52,38.1 381,43.18 419.1,149.86 53.34,111.76 149.86,162.56 353.06,177.8 523.24,43.18 612.14,-327.66 149.86,-619.76 -88.9,-66.04 149.86,-86.36 193.04,-68.58 83.82,45.72 203.2,40.64 284.48,-7.62 121.92,-71.12 548.64,-15.24 561.34,83.82 22.86,157.48 508,-83.82 180.34,-391.16 -30.48,-27.94 -53.34,-50.8 -45.72,-50.8 15.24,0 111.76,-25.4 233.68,-45.72 1264.92,-226.06 1912.62,-190.5 2583.18,149.86 154.94,78.74 246.38,0 246.38,-195.58 0,-254 -307.34,-718.82 -525.78,-792.48 -88.9,-30.48 -86.36,-27.94 106.68,-142.24 518.16,-312.42 853.44,-779.78 695.96,-972.82 -38.1,-45.72 -68.58,-111.76 -68.58,-134.62 0,-165.1 -297.18,-363.22 -739.14,-480.06 -167.64,-43.18 -160.02,-17.78 -45.72,-142.24 563.88,-619.76 657.86,-1303.02 208.28,-1460.5 -111.76,-38.1 -434.34,-45.72 -754.38,-22.86 -180.34,15.24 -177.8,15.24 -165.1,-134.62 30.48,-358.14 -104.14,-988.06 -261.62,-1226.82 -200.66,-299.72 -480.06,-431.8 -1064.26,-492.76 -1353.82,-147.32 -2237.74,-320.04 -2948.94,-591.82 -307.34,-119.38 -299.72,-111.76 -254,-226.06 104.14,-269.24 91.44,-576.58 -30.48,-734.06 -223.52,-284.48 -845.82,-403.86 -1310.64,-238.76 -246.38,88.9 -299.72,104.14 -322.58,83.82 -35.56,-38.1 -78.74,-299.72 -73.66,-426.72 2.54,-129.54 5.08,-124.46 -76.2,-165.1 -203.2,-101.6 -723.9,68.58 -949.96,307.34 -180.34,187.96 83.82,581.66 83.82,807.72 -101.6,99.06 -370.84,154.94 -391.16,314.96 -7.62,66.04 -53.34,127 -81.28,96.52 -76.2,-81.28 -58.42,-472.44 38.1,-772.16 121.92,-383.54 15.24,-642.62 -368.3,-830.58 -276.86,-134.62 -899.16,-218.44 -1272.54,-165.1 -81.28,12.7 -157.48,22.86 -165.1,15.24 -27.94,-27.94 114.3,-200.66 276.86,-327.66 406.4,-314.96 467.36,-429.26 307.34,-607.06 -139.7,-157.48 -350.52,-213.36 -972.82,-246.38 -180.34,-10.16 -180.34,-15.24 -276.86,58.42zm4155.44 7150.1c134.62,96.52 299.72,208.28 365.76,238.76 142.24,66.04 142.24,76.2 91.44,134.62 -71.12,106.68 -340.36,-175.26 -426.72,-7.62 -55.88,104.14 -276.86,276.86 -276.86,210.82 0,-7.62 -45.72,-91.44 -91.44,-172.72 -132.08,-241.3 7.62,-307.34 60.96,-530.86 15.24,-68.58 -7.62,-76.2 276.86,127zm335.28 1788.16c83.82,53.34 172.72,175.26 134.62,187.96 -66.04,22.86 -104.14,88.9 -119.38,223.52 -15.24,157.48 -27.94,195.58 -66.04,149.86 -38.1,-43.18 -127,-35.56 -149.86,7.62 -55.88,91.44 -261.62,-195.58 -360.68,119.38 -55.88,180.34 -58.42,180.34 -134.62,106.68 -73.66,-76.2 -73.66,-73.66 22.86,-134.62 147.32,-93.98 142.24,-246.38 246.38,-353.06 30.48,-22.86 50.8,-73.66 68.58,-187.96 40.64,-259.08 22.86,-238.76 165.1,-193.04 73.66,22.86 157.48,50.8 193.04,73.66zm-6840.22 1864.36c-137.16,38.1 -215.9,114.3 -241.3,241.3 -12.7,66.04 -12.7,63.5 -96.52,35.56 -208.28,-68.58 -408.94,83.82 -419.1,314.96 -12.7,314.96 464.82,391.16 607.06,96.52 38.1,-81.28 43.18,-86.36 88.9,-73.66 81.28,22.86 223.52,5.08 284.48,-30.48 299.72,-180.34 111.76,-665.48 -223.52,-584.2zm-5377.18 -3436.62c-81.28,38.1 -177.8,165.1 -177.8,226.06 0,81.28 22.86,96.52 50.8,38.1 91.44,-195.58 314.96,-83.82 299.72,154.94 0,134.62 45.72,218.44 203.2,337.82 58.42,53.34 147.32,165.1 269.24,345.44 185.42,276.86 396.24,508 500.38,546.1 99.06,35.56 817.88,200.66 937.26,215.9 119.38,15.24 119.38,15.24 149.86,149.86 124.46,576.58 332.74,718.82 807.72,899.16 383.54,144.78 1198.88,350.52 1384.3,350.52 7.62,0 7.62,53.34 0,106.68 -33.02,431.8 607.06,386.08 607.06,22.86 0,-68.58 0,-71.12 66.04,-60.96 99.06,12.7 622.3,45.72 1064.26,66.04 1092.2,53.34 1137.92,60.96 1219.2,121.92 254,185.42 233.68,-172.72 121.92,-83.82 -40.64,38.1 -162.56,-111.76 -203.2,-111.76 -7.62,0 -68.58,-73.66 -134.62,-172.72 -246.38,-358.14 -449.58,-449.58 -1640.84,-718.82 -574.04,-129.54 -769.62,-180.34 -1046.48,-284.48 -434.34,-160.02 -411.48,-147.32 -276.86,-165.1 320.04,-40.64 810.26,-190.5 1003.3,-320.04 233.68,-160.02 -50.8,-35.56 -157.48,-114.3 -325.12,-182.88 -734.06,-246.38 -1099.82,-312.42 -226.06,-40.64 -464.82,17.78 -675.64,-76.2 -274.32,-121.92 -485.14,-180.34 -553.72,-165.1 -198.12,48.26 -469.9,-228.6 -657.86,-292.1 -149.86,-35.56 -198.12,-436.88 -68.58,-553.72 96.52,-83.82 228.6,-76.2 307.34,15.24 160.02,182.88 -22.86,104.14 -81.28,157.48 -111.76,106.68 93.98,170.18 208.28,60.96 134.62,-129.54 -50.8,-398.78 -269.24,-398.78 -276.86,0 -388.62,187.96 -327.66,548.64 12.7,81.28 20.32,157.48 20.32,162.56 -15.24,30.48 -66.04,15.24 -81.28,-20.32 -60.96,-106.68 -284.48,-167.64 -502.92,-134.62 -304.8,43.18 -708.66,-99.06 -965.2,-360.68 -200.66,-203.2 -215.9,-208.28 -299.72,-180.34zm3332.48 3444.24c-180.34,53.34 -266.7,281.94 -165.1,434.34 243.84,365.76 762,68.58 523.24,-307.34 -83.82,-132.08 -193.04,-172.72 -358.14,-127zm-1968.5 -1242.06c-180.34,53.34 -271.78,284.48 -165.1,441.96 246.38,360.68 762,60.96 530.86,-314.96 -81.28,-134.62 -200.66,-172.72 -365.76,-127zm-680.72 -576.58c-299.72,134.62 -187.96,553.72 149.86,553.72 467.36,0 287.02,-756.92 -149.86,-553.72zm-1602.74 0c-149.86,60.96 -208.28,320.04 -96.52,449.58 238.76,276.86 657.86,27.94 515.62,-299.72 -58.42,-134.62 -269.24,-210.82 -419.1,-149.86zm792.48 822.96c-177.8,53.34 -269.24,284.48 -165.1,441.96 246.38,368.3 769.62,60.96 533.4,-314.96 -86.36,-132.08 -203.2,-172.72 -368.3,-127zm2194.56 480.06c-180.34,50.8 -269.24,281.94 -165.1,434.34 248.92,365.76 769.62,68.58 530.86,-307.34 -83.82,-134.62 -200.66,-172.72 -365.76,-127z"/>
   <path class="fil1" d="M1688.79 8044.89c0,15.24 30.48,15.24 53.34,7.62 35.56,-7.62 66.04,7.62 127,68.58 111.76,96.52 177.8,111.76 96.52,12.7 -73.66,-88.9 88.9,63.5 104.14,83.82 121.92,147.32 203.2,149.86 91.44,7.62 -111.76,-142.24 40.64,-48.26 96.52,30.48 78.74,106.68 177.8,144.78 68.58,-15.24 -68.58,-99.06 -68.58,-99.06 119.38,-99.06 165.1,0 246.38,22.86 335.28,114.3 53.34,43.18 83.82,58.42 134.62,58.42 238.76,0 205.74,421.64 142.24,388.62 -7.62,0 -193.04,-66.04 -411.48,-134.62 -426.72,-132.08 -619.76,-233.68 -868.68,-411.48 -170.18,-121.92 -200.66,-149.86 -142.24,-134.62 22.86,0 45.72,15.24 53.34,22.86zm-1262.38 1168.4c104.14,104.14 30.48,276.86 -111.76,276.86 -134.62,0 -233.68,-160.02 -165.1,-248.92 66.04,-83.82 208.28,-96.52 276.86,-27.94zm769.62 749.3c88.9,66.04 101.6,266.7 12.7,320.04 -187.96,116.84 -391.16,-60.96 -292.1,-254 50.8,-99.06 187.96,-127 279.4,-66.04zm784.86 -772.16c231.14,231.14 -284.48,406.4 -284.48,104.14 0,-149.86 165.1,-215.9 284.48,-104.14zm4663.44 1803.4c236.22,205.74 -330.2,513.08 -330.2,134.62 0,-162.56 218.44,-254 330.2,-134.62zm-530.86 241.3c53.34,58.42 30.48,215.9 -45.72,284.48 -157.48,142.24 -360.68,-45.72 -261.62,-233.68 50.8,-96.52 231.14,-134.62 307.34,-50.8zm-226.06 -607.06c129.54,66.04 121.92,241.3 -5.08,292.1 -398.78,160.02 -314.96,-462.28 5.08,-292.1zm-1242.06 330.2c104.14,66.04 106.68,271.78 0,335.28 -177.8,109.22 -363.22,-81.28 -269.24,-269.24 48.26,-96.52 180.34,-127 269.24,-66.04zm-1960.88 -1244.6c88.9,68.58 96.52,269.24 15.24,322.58 -187.96,119.38 -391.16,-60.96 -292.1,-254 50.8,-99.06 187.96,-127 276.86,-68.58zm792.48 -949.96c43.18,86.36 58.42,266.7 121.92,330.2 43.18,50.8 45.72,-30.48 0,-165.1 -81.28,-233.68 -2.54,-149.86 88.9,88.9 55.88,147.32 139.7,223.52 68.58,38.1 -60.96,-149.86 -35.56,-160.02 35.56,-15.24 55.88,111.76 127,195.58 91.44,96.52 -45.72,-96.52 -40.64,-99.06 81.28,-15.24 220.98,154.94 396.24,226.06 464.82,203.2 142.24,-60.96 264.16,7.62 320.04,187.96 63.5,193.04 121.92,185.42 60.96,-7.62 -7.62,-22.86 0,-30.48 7.62,-22.86 60.96,40.64 96.52,358.14 149.86,358.14 76.2,0 -58.42,-243.84 22.86,-162.56 25.4,22.86 144.78,322.58 127,119.38 -5.08,-68.58 -7.62,-66.04 157.48,-91.44 254,-35.56 292.1,-20.32 342.9,142.24 45.72,142.24 96.52,218.44 76.2,114.3 -53.34,-261.62 7.62,-271.78 81.28,-7.62 45.72,162.56 119.38,231.14 91.44,81.28 -38.1,-193.04 200.66,261.62 142.24,22.86 -22.86,-88.9 -22.86,-101.6 104.14,-127 193.04,-40.64 431.8,30.48 457.2,134.62 20.32,83.82 88.9,231.14 104.14,231.14 38.1,0 35.56,-35.56 7.62,-104.14 -53.34,-127 -15.24,-111.76 45.72,15.24 66.04,142.24 119.38,157.48 66.04,30.48 -30.48,-106.68 38.1,-68.58 96.52,43.18 38.1,83.82 83.82,99.06 60.96,22.86 -30.48,-101.6 -53.34,-132.08 60.96,-149.86 320.04,-50.8 411.48,124.46 680.72,203.2 261.62,76.2 358.14,149.86 477.52,350.52 2.54,5.08 -558.8,-124.46 -657.86,-88.9 -185.42,68.58 -591.82,7.62 -680.72,-88.9 -68.58,-76.2 -68.58,-78.74 -284.48,-60.96 -337.82,27.94 -508,-2.54 -703.58,-119.38 -88.9,-53.34 -96.52,-55.88 -307.34,-53.34 -269.24,5.08 -345.44,-30.48 -508,-193.04 -60.96,-60.96 -121.92,-114.3 -129.54,-106.68 -58.42,38.1 -515.62,-142.24 -627.38,-246.38 -66.04,-60.96 -99.06,-71.12 -218.44,-88.9 -292.1,-48.26 -327.66,-91.44 -515.62,-472.44 -165.1,-337.82 -195.58,-480.06 -119.38,-480.06 15.24,0 45.72,30.48 58.42,53.34zm576.58 -134.62c45.72,22.86 73.66,45.72 106.68,119.38 58.42,134.62 101.6,127 50.8,-7.62 -38.1,-104.14 63.5,-7.62 119.38,119.38 63.5,142.24 129.54,172.72 76.2,38.1 -30.48,-76.2 10.16,-68.58 53.34,7.62 76.2,139.7 142.24,180.34 88.9,53.34 -63.5,-154.94 30.48,-96.52 30.48,-127 0,-53.34 231.14,-73.66 373.38,-30.48 88.9,25.4 104.14,38.1 149.86,127 43.18,83.82 127,134.62 88.9,58.42 -86.36,-233.68 114.3,53.34 129.54,53.34 73.66,0 -78.74,-121.92 20.32,-104.14 50.8,25.4 149.86,200.66 119.38,88.9 -12.7,-111.76 134.62,-121.92 398.78,-22.86 147.32,58.42 142.24,60.96 -68.58,99.06 -784.86,139.7 -1270,60.96 -1833.88,-292.1 -198.12,-124.46 -238.76,-149.86 -238.76,-172.72 0,-38.1 246.38,-45.72 335.28,-7.62zm-1803.4 0c142.24,43.18 881.38,228.6 906.78,292.1 58.42,223.52 50.8,226.06 -538.48,30.48 -383.54,-127 -383.54,-127 -495.3,-248.92 -238.76,-254 -43.18,-129.54 127,-73.66zm1137.92 1811.02c88.9,68.58 104.14,266.7 15.24,322.58 -187.96,116.84 -386.08,-58.42 -284.48,-254 48.26,-96.52 180.34,-127 269.24,-68.58z"/>
   <path class="fil2" d="M11706.55 9513.01c508,127 858.52,487.68 1076.96,1122.68 177.8,515.62 175.26,901.7 -22.86,1115.06 -78.74,86.36 -81.28,81.28 -58.42,15.24 12.7,-88.9 12.7,-680.72 -15.24,-756.92 -17.78,-43.18 -12.7,-30.48 -15.24,104.14 -5.08,406.4 -68.58,749.3 -127,749.3 -45.72,0 -45.72,-7.62 -45.72,-127 0,-58.42 -15.24,-165.1 -30.48,-215.9 -22.86,-106.68 -20.32,-104.14 -43.18,27.94 -91.44,500.38 -96.52,629.92 -556.26,441.96 -1005.84,-406.4 -1173.48,-381 -1706.88,-353.06 -15.24,0 76.2,-109.22 165.1,-200.66 307.34,-312.42 449.58,-711.2 449.58,-1280.16 0,-388.62 165.1,-571.5 576.58,-650.24 165.1,-33.02 180.34,-30.48 353.06,7.62zm-129.54 111.76c91.44,53.34 231.14,137.16 314.96,195.58 134.62,91.44 218.44,111.76 157.48,43.18 -45.72,-50.8 -350.52,-246.38 -464.82,-292.1 -170.18,-66.04 -177.8,-43.18 -7.62,53.34zm-238.76 7.62c0,15.24 487.68,314.96 487.68,269.24 0,-22.86 -180.34,-157.48 -307.34,-231.14 -104.14,-60.96 -195.58,-76.2 -180.34,-38.1zm-73.66 73.66c22.86,30.48 238.76,172.72 269.24,172.72 127,0 -320.04,-269.24 -269.24,-172.72zm-106.68 68.58c0.01,0.01 38.1,38.1 91.44,73.66 104.14,91.44 157.48,66.04 50.8,-27.94 -50.8,-48.26 -142.24,-76.2 -142.24,-45.72zm891.54 -2329.18c195.58,83.82 548.64,538.48 660.4,861.06 149.86,449.58 66.04,955.04 -172.72,1033.78 -106.68,35.56 -106.68,38.1 -60.96,-111.76 38.1,-99.06 38.1,-149.86 30.48,-269.24 -15.24,-218.44 -35.56,-261.62 -53.34,-121.92 -27.94,248.92 -157.48,508 -246.38,518.16 -187.96,20.32 -1318.26,-480.06 -1318.26,-584.2 0,-7.62 22.86,-22.86 53.34,-38.1 457.2,-203.2 165.1,-982.98 635,-1234.44 157.48,-83.82 353.06,-104.14 472.44,-53.34zm-200.66 45.72c0,17.78 307.34,264.16 327.66,284.48 152.4,147.32 210.82,157.48 106.68,22.86 -111.76,-142.24 -434.34,-375.92 -434.34,-307.34zm12.7 195.58c187.96,170.18 271.78,215.9 271.78,149.86 0,-15.24 -208.28,-182.88 -276.86,-226.06 -88.9,-53.34 -91.44,-15.24 5.08,76.2zm-142.24 81.28c76.2,68.58 106.68,76.2 121.92,38.1 12.7,-38.1 -289.56,-190.5 -121.92,-38.1z"/>
   <path class="fil3" d="M19671.99 9002.47c231.14,195.58 454.66,591.82 426.72,749.3 -17.78,81.28 -22.86,81.28 -203.2,0 -680.72,-307.34 -1242.06,-320.04 -2606.04,-73.66 -208.28,35.56 -373.38,66.04 -381,58.42 -7.62,-7.62 -15.24,-45.72 -15.24,-81.28 -22.86,-127 0,-127 353.06,-106.68 485.14,30.48 571.5,5.08 485.14,-147.32 -50.8,-93.98 347.98,-88.9 449.58,-86.36 345.44,7.62 566.42,-177.8 868.68,-154.94 172.72,12.7 345.44,22.86 515.62,60.96 127,38.1 149.86,22.86 68.58,-22.86 -53.34,-38.1 -187.96,-73.66 -396.24,-111.76 -129.54,-25.4 284.48,-170.18 312.42,-180.34 0.01,0.01 53.34,45.72 121.92,96.52zm-218.44 -1742.44c314.96,50.8 698.5,215.9 741.68,320.04 22.86,60.96 22.86,58.42 -45.72,30.48 -96.52,-38.1 -91.44,-20.32 38.1,83.82 154.94,121.92 193.04,193.04 134.62,297.18 -403.86,711.2 -1099.82,891.54 -1798.32,1109.98 -276.86,83.82 -490.22,83.82 -774.7,109.22 -132.08,10.16 -218.44,60.96 -160.02,152.4 30.48,50.8 7.62,58.42 -373.38,50.8 -464.82,-7.62 -518.16,15.24 -487.68,195.58 7.62,45.72 0,76.2 -7.62,76.2 -175.26,0 -391.16,66.04 -568.96,88.9 -127,15.24 -63.5,96.52 -215.9,73.66 -172.72,-22.86 -238.76,22.86 -91.44,68.58 149.86,45.72 180.34,127 60.96,172.72 -134.62,50.8 5.08,91.44 -172.72,43.18 -111.76,-30.48 -193.04,-35.56 -238.76,-7.62 -53.34,30.48 -30.48,76.2 45.72,76.2 223.52,0 629.92,261.62 589.28,381 -48.26,144.78 -500.38,134.62 -500.38,-15.24 0,-119.38 -157.48,-165.1 -680.72,-185.42 -419.1,-17.78 -434.34,-7.62 -383.54,177.8 15.24,53.34 -35.56,58.42 -119.38,15.24 -88.9,-45.72 -635,-50.8 -576.58,-7.62 129.54,66.04 398.78,139.7 322.58,330.2 -43.18,106.68 -309.88,-226.06 -492.76,-314.96 -279.4,-132.08 -60.96,-226.06 365.76,-149.86 193.04,35.56 401.32,-58.42 388.62,-177.8 -7.62,-83.82 185.42,-127 299.72,-60.96 96.52,55.88 142.24,38.1 68.58,-38.1 -38.1,-43.18 -38.1,-43.18 0,-58.42 223.52,-53.34 919.48,-71.12 919.48,-368.3 0,-215.9 604.52,-276.86 388.62,-599.44 -58.42,-88.9 -58.42,-91.44 68.58,-104.14 111.76,-10.16 114.3,-7.62 157.48,60.96 45.72,73.66 45.72,73.66 50.8,-15.24 0,-83.82 2.54,-78.74 142.24,-134.62 218.44,-86.36 525.78,-299.72 599.44,-419.1 38.1,-60.96 38.1,-60.96 149.86,172.72 68.58,119.38 129.54,266.7 149.86,327.66 40.64,119.38 53.34,142.24 91.44,127 58.42,-22.86 -111.76,-472.44 -248.92,-635 -111.76,-134.62 -96.52,-154.94 111.76,-210.82 368.3,-93.98 309.88,-114.3 876.3,254 294.64,193.04 307.34,195.58 307.34,149.86 0,-35.56 -454.66,-345.44 -635,-434.34 -53.34,-22.86 -91.44,-43.18 -91.44,-50.8 0,-22.86 546.1,-109.22 1026.16,-165.1 426.72,-48.26 726.44,-96.52 741.68,-111.76 58.42,-60.96 -922.02,22.86 -1526.54,127 -180.34,30.48 -337.82,53.34 -345.44,53.34 -7.62,0 5.08,-40.64 30.48,-91.44 43.18,-91.44 81.28,-508 38.1,-441.96 -15.24,22.86 -114.3,353.06 -142.24,495.3 -15.24,50.8 -30.48,60.96 -187.96,96.52 -208.28,48.26 -198.12,53.34 -149.86,-96.52 93.98,-299.72 58.42,-370.84 -142.24,-292.1 -91.44,35.56 15.24,-66.04 172.72,-157.48 157.48,-93.98 254,-127 284.48,-81.28 35.56,50.8 297.18,-60.96 403.86,-180.34 76.2,-88.9 91.44,-66.04 180.34,-7.62 27.94,15.24 58.42,12.7 193.04,-30.48 322.58,-104.14 668.02,-127 1018.54,-73.66zm-2288.54 2755.9c43.18,99.06 7.62,193.04 -106.68,116.84 -172.72,-111.76 -510.54,-149.86 -657.86,-73.66 -91.44,53.34 -91.44,53.34 -195.58,22.86 -218.44,-66.04 -30.48,-88.9 -30.48,-119.38 0,-35.56 147.32,-76.2 297.18,-104.14 182.88,-33.02 609.6,-45.72 693.42,157.48zm154.94 -5481.32c830.58,223.52 1148.08,1148.08 650.24,1856.74 -119.38,170.18 114.3,111.76 114.3,261.62 0,66.04 -502.92,596.9 -734.06,769.62 -137.16,104.14 -307.34,185.42 -495.3,226.06 -96.52,20.32 -81.28,50.8 30.48,50.8 99.06,0 45.72,180.34 0,165.1 -45.72,-15.24 -81.28,22.86 -58.42,68.58 20.32,38.1 149.86,53.34 231.14,22.86 149.86,-58.42 154.94,-58.42 111.76,96.52 -119.38,429.26 -485.14,718.82 -1003.3,800.1 -231.14,38.1 -269.24,99.06 -215.9,322.58 15.24,68.58 7.62,81.28 -114.3,238.76 -142.24,187.96 -185.42,218.44 -388.62,218.44 -198.12,0 -76.2,20.32 -7.62,88.9 22.86,45.72 185.42,-5.08 60.96,106.68 -60.96,58.42 -375.92,76.2 -480.06,27.94 -157.48,-71.12 -815.34,119.38 -1437.64,426.72 -134.62,68.58 -246.38,119.38 -261.62,127 -7.62,0 7.62,-12.7 30.48,-43.18 111.76,-127 469.9,-317.5 756.92,-403.86 223.52,-71.12 426.72,-264.16 335.28,-322.58 -22.86,-15.24 15.24,-111.76 53.34,-134.62 22.86,-22.86 467.36,-35.56 411.48,-127 -22.86,-30.48 83.82,-5.08 231.14,50.8 129.54,48.26 165.1,53.34 129.54,-7.62 -83.82,-139.7 -472.44,-144.78 -629.92,-162.56 -45.72,-38.1 292.1,-414.02 365.76,-421.64 292.1,-71.12 543.56,-205.74 734.06,142.24 50.8,91.44 91.44,121.92 104.14,68.58 66.04,-127 -243.84,-299.72 -43.18,-299.72 40.64,0 383.54,-5.08 193.04,-53.34 -231.14,-55.88 -642.62,-43.18 -904.24,30.48 -30.48,10.16 -2.54,-38.1 134.62,-215.9 378.46,-492.76 744.22,-1041.4 957.58,-1633.22 33.02,-88.9 45.72,-104.14 76.2,-96.52 20.32,7.62 83.82,-27.94 185.42,-111.76 317.5,-261.62 314.96,-264.16 584.2,-276.86 149.86,-7.62 269.24,0 322.58,15.24 66.04,15.24 96.52,12.7 111.76,0 30.48,-30.48 -35.56,-58.42 -403.86,-114.3 -172.72,-25.4 322.58,-175.26 665.48,-200.66 172.72,-12.7 233.68,-53.34 142.24,-91.44 -73.66,-20.32 -396.24,10.16 -599.44,60.96 -274.32,68.58 -637.54,289.56 -896.62,538.48 -144.78,139.7 -142.24,142.24 -30.48,-200.66 88.9,-276.86 246.38,-899.16 231.14,-937.26 0,-15.24 -218.44,576.58 -299.72,838.2 -45.72,157.48 -53.34,160.02 -104.14,7.62 -83.82,-259.08 -403.86,-741.68 -500.38,-741.68 -38.1,0 -27.94,15.24 81.28,137.16 121.92,132.08 246.38,365.76 322.58,612.14 30.48,76.2 58.42,172.72 81.28,203.2 38.1,73.66 2.54,203.2 -172.72,576.58 -116.84,254 -142.24,269.24 -142.24,119.38 0,-307.34 -238.76,-1010.92 -342.9,-1010.92 -53.34,0 -48.26,60.96 38.1,254 86.36,195.58 134.62,337.82 177.8,553.72 58.42,287.02 -83.82,-15.24 -154.94,-15.24 -45.72,0 -25.4,68.58 20.32,114.3 180.34,172.72 215.9,365.76 106.68,553.72 -114.3,193.04 -248.92,403.86 -264.16,403.86 -20.32,0 -45.72,-673.1 -147.32,-673.1 -93.98,0 68.58,459.74 12.7,441.96 -25.4,-27.94 -340.36,-170.18 -365.76,-157.48 -30.48,15.24 15.24,55.88 142.24,119.38 368.3,182.88 342.9,378.46 -96.52,876.3 -78.74,86.36 -76.2,88.9 -91.44,-121.92 -22.86,-335.28 -88.9,-568.96 -142.24,-515.62 -15.24,15.24 -15.24,60.96 7.62,180.34 96.52,500.38 76.2,650.24 -104.14,815.34 -104.14,96.52 -104.14,96.52 -127,-53.34 -22.86,-142.24 -104.14,-358.14 -134.62,-358.14 -45.72,0 88.9,482.6 88.9,561.34 0,60.96 -530.86,561.34 -642.62,599.44 -55.88,27.94 -284.48,208.28 -322.58,208.28 -22.86,0 -449.58,434.34 -449.58,457.2 0,86.36 -172.71,-253.97 -172.72,-254 -91.44,-149.86 -88.9,-149.86 -50.8,-195.58 50.8,-50.8 96.52,-170.18 96.52,-246.38 0,-81.28 22.86,-81.28 60.96,0 35.56,81.28 43.18,203.2 0,276.86 -60.96,119.38 27.94,149.86 170.18,60.96 218.44,-137.16 251.46,-195.58 276.86,-441.96 43.18,-391.16 60.96,-396.24 129.54,-68.58 0,7.62 20.32,-7.62 43.18,-30.48 88.9,-81.28 25.4,-533.4 -88.9,-635 -88.9,-78.74 12.7,-109.22 172.72,-53.34 147.32,55.88 177.8,-7.62 104.14,-193.04 -68.58,-172.72 -12.7,-365.76 134.62,-510.54 83.82,-81.28 127,-88.9 149.86,-30.48 119.38,264.16 335.28,480.06 307.34,307.34 -10.16,-58.42 -7.62,-66.04 30.48,-66.04 96.52,0 279.4,-353.06 439.42,-861.06 78.74,-248.92 137.16,-279.4 276.86,-157.48 86.36,73.66 106.68,30.48 68.58,-172.72 -73.66,-396.24 -58.42,-688.34 45.72,-927.1 83.82,-195.58 96.52,-215.9 119.38,-203.2 73.66,45.72 86.36,-7.62 96.52,-464.82 10.16,-434.34 5.08,-436.88 99.06,-546.1 421.64,-490.22 1148.08,-673.1 1765.3,-500.38zm1153.16 1203.96c48.26,25.4 17.78,398.78 127,248.92 142.24,-195.58 180.34,-218.44 269.24,-142.24 88.9,86.36 342.9,-43.18 426.72,-99.06 91.44,-58.42 477.52,-10.16 568.96,68.58 200.66,167.64 -38.1,850.9 -426.72,1226.82 -76.2,73.66 -73.66,78.74 -358.14,83.82 -284.48,2.54 -441.96,25.4 -668.02,104.14 -116.84,40.64 -119.38,35.56 -177.8,0 -205.74,-127 -292.1,185.42 -518.16,185.42 -50.8,0 -40.64,-10.16 127,-177.8 287.02,-281.94 441.96,-546.1 383.54,-637.54 -30.48,-50.8 -38.1,-43.18 81.28,-96.52 119.38,-53.34 96.52,-73.66 284.48,208.28 119.38,180.34 149.86,210.82 172.72,172.72 15.24,-48.26 -187.96,-365.76 -172.72,-365.76 30.48,0 383.54,208.28 515.62,307.34 144.78,104.14 218.44,134.62 218.44,96.52 0,-30.48 -515.62,-386.08 -650.24,-449.58 -157.48,-71.12 -152.4,-71.12 -38.1,-127 139.7,-71.12 523.24,-299.72 553.72,-330.2 53.34,-58.42 -22.86,-30.48 -284.48,119.38 -241.3,142.24 -622.3,330.2 -665.48,330.2 -15.24,0 -7.62,-35.56 12.7,-73.66 48.26,-81.28 83.82,-322.58 83.82,-533.4 0,-149.86 22.86,-177.8 134.62,-119.38z"/>
   <path class="fil4" d="M13202.61 2632.15c330.2,76.2 838.2,487.68 838.2,673.1 0,76.2 91.44,53.34 149.86,-35.56 45.72,-68.58 45.72,-71.12 149.86,-22.86 749.3,335.28 1617.98,528.32 3091.18,695.96 645.16,73.66 731.52,121.92 922.02,508 182.88,375.92 292.1,1229.36 142.24,1183.64 -17.78,-5.08 -165.1,-33.02 -165.1,-53.34 -7.62,-1242.06 -1706.88,-1734.82 -2748.28,-800.1 -134.62,119.38 -284.48,337.82 -284.48,411.48 0,142.24 -15.24,187.96 -73.66,172.72 -60.96,-15.24 -60.96,-15.24 -30.48,53.34 200.66,332.74 -223.52,777.24 -223.52,1137.92 0,134.62 0,134.62 -149.86,134.62 -142.24,0 -561.34,-60.96 -652.78,-99.06 -73.66,-22.86 -83.82,-22.86 -96.52,30.48 -45.72,172.72 -292.1,58.42 -403.86,-172.72 -109.22,-220.98 -459.74,-261.62 -629.92,-434.34 -111.76,-96.52 66.04,302.26 284.48,637.54 104.14,157.48 233.68,434.34 218.44,449.58 -15.24,15.24 -233.68,-195.58 -464.82,-441.96 -238.76,-254 -289.56,-353.06 -322.58,-553.72 -78.74,-487.68 -114.3,-530.86 -576.58,-906.78 -226.06,-185.42 -314.96,-261.62 -320.04,-299.72 -60.96,-322.58 -55.88,-612.14 12.7,-972.82 20.32,-96.52 17.78,-99.06 134.62,-15.24 88.9,63.5 218.44,134.62 330.2,190.5 350.52,167.64 294.64,40.64 195.58,-294.64 -264.16,-891.54 -7.62,-1341.12 673.1,-1176.02zm4206.24 1549.4c-269.24,53.34 -304.8,60.96 -292.1,76.2 30.48,27.94 683.26,-76.2 683.26,-106.68 0,-27.94 -119.38,-12.7 -391.16,30.48zm441.96 76.2c-17.78,2.54 -370.84,48.26 -307.34,88.9 20.32,12.7 601.98,-45.72 472.44,-96.52 -45.72,-22.86 -30.48,-22.86 -165.1,7.62zm45.72 185.42c-68.58,15.24 -111.76,76.2 -53.34,68.58 205.74,0 411.48,-157.48 53.34,-68.58zm238.76 99.06c-7.62,2.54 -218.44,88.9 -119.38,88.9 17.78,0 373.38,-40.64 269.24,-81.28 -35.56,-15.24 -119.38,-15.24 -149.86,-7.62zm-7950.2 -2471.42c119.38,76.2 276.86,218.44 396.24,373.38 76.2,99.06 99.06,210.82 114.3,568.96 38.1,937.26 281.94,1475.74 988.06,2171.7 462.28,457.2 480.06,487.68 538.48,802.64 63.5,342.9 30.48,911.86 -60.96,1122.68 -20.32,66.04 -22.86,63.5 -185.42,66.04 -541.02,12.7 -985.52,434.34 -1137.92,1079.5 -88.9,365.76 -83.82,355.6 -495.3,477.52 -269.24,81.28 -373.38,129.54 -576.58,254 -124.46,78.74 -127,76.2 -492.76,76.2 -502.92,0 -502.92,0 -403.86,-127 266.7,-345.44 294.64,-896.62 88.9,-1460.5 -71.12,-193.04 -177.8,-246.38 -149.86,-73.66 71.12,447.04 -22.86,713.74 -292.1,838.2 -256.54,116.84 -579.12,-15.24 -584.2,-233.68 -2.54,-170.18 -261.62,-454.66 -419.1,-454.66 -203.2,0 -342.9,-210.82 -373.38,-548.64 -15.24,-162.56 -96.52,-254 -180.34,-200.66 -157.48,96.52 -231.14,-96.52 -157.48,-403.86 30.48,-127 27.94,-127 -30.48,-375.92 -55.88,-243.84 -58.42,-510.54 -127,-746.76 -45.72,-114.3 7.62,-1145.54 60.96,-1198.88 27.94,-27.94 200.66,749.3 200.66,914.4 0,215.9 104.14,200.66 119.38,-22.86 22.86,-322.58 111.76,-706.12 203.2,-825.5 99.06,-127 22.86,-111.76 22.86,-200.66 0,-147.32 -203.2,187.96 -203.2,165.1 -45.72,-22.86 236.22,-942.34 284.48,-1137.92 45.72,-180.34 261.62,-436.88 518.16,-607.06 124.46,-83.82 312.42,-180.34 312.42,-165.1 0,7.62 -22.86,81.28 -50.8,172.72 -60.96,193.04 -60.96,365.76 7.62,457.2 127,170.18 462.28,838.2 576.58,1122.68 73.66,187.96 88.9,208.28 149.86,231.14 127,50.8 238.76,15.24 261.62,-88.9 45.72,-223.52 233.68,-469.9 546.1,-726.44 464.82,-381 574.04,-746.76 381,-1333.5 -15.24,-50.8 0,-43.18 149.86,38.1zm668.02 3129.28c0,15.24 693.42,294.64 754.38,322.58 381,172.72 353.06,165.1 353.06,127 0,-83.82 -1107.44,-518.16 -1107.44,-449.58zm576.58 403.86c0,30.48 307.34,170.18 411.48,195.58 111.76,27.94 63.5,-2.54 -134.62,-96.52 -243.84,-116.84 -276.86,-129.54 -276.86,-99.06zm193.04 307.34c17.78,73.66 472.44,165.1 180.34,38.1 -142.24,-63.5 -195.58,-76.2 -180.34,-38.1zm-7.62 180.34c0,106.68 556.26,187.96 119.38,15.24 -127,-50.8 -119.38,-53.34 -119.38,-15.24zm104.14 215.9c-58.42,101.6 322.58,116.84 248.92,76.2 -53.34,-38.1 -241.3,-91.44 -248.92,-76.2z"/>
   <path class="fil5" d="M12417.75 1570.43c7.62,7.62 7.62,73.66 7.62,157.48 -7.62,119.38 7.62,177.8 50.8,304.8 53.34,157.48 53.34,157.48 -15.24,187.96 -66.04,38.1 -88.9,127 -30.48,142.24 45.72,22.86 337.82,-127 421.64,-203.2 66.04,-73.66 119.38,-88.9 119.38,-35.56 0,101.6 340.36,-190.5 299.72,-106.68 -71.12,172.72 83.82,38.1 149.86,-5.08 142.24,-101.6 309.88,-83.82 88.9,58.42 -50.8,25.4 96.52,35.56 157.48,-38.1 48.26,-48.26 213.36,-83.82 104.14,7.62 -142.24,144.78 195.58,2.54 195.58,45.72 0,7.62 -7.62,30.48 -22.86,38.1 -30.48,27.94 50.8,73.66 81.28,50.8 73.66,-63.5 160.02,-22.86 91.44,45.72 -45.72,22.86 35.56,81.28 96.52,68.58 180.34,-40.64 -132.08,185.42 -15.24,185.42 142.24,0 -66.04,132.08 -66.04,187.96 -60.96,299.72 -33.02,269.24 -114.3,172.72 -182.88,-223.52 -401.32,-330.2 -629.92,-381 -340.36,-73.66 -919.48,-160.02 -1054.1,246.38 -96.52,292.1 -139.7,695.96 -88.9,949.96 53.34,276.86 66.04,269.24 -119.38,127 -180.34,-134.62 -307.34,-284.48 -441.96,-530.86 -149.86,-271.78 -182.88,-208.28 -60.96,111.76 20.32,53.34 30.48,149.86 30.48,269.24 0,210.82 -22.86,299.72 -45.72,157.48 0,-45.72 -53.34,-165.1 -104.14,-269.24 -104.14,-213.36 -195.58,-500.38 60.96,-657.86 66.04,-48.26 317.5,-271.78 396.24,-271.78 96.52,0 119.38,-88.9 73.66,-276.86 -7.62,-58.42 -7.62,-111.76 22.86,-215.9 68.58,-238.76 45.72,-292.1 -45.72,-96.52 -73.66,162.56 -142.24,170.18 -154.94,20.32 -25.4,-134.62 167.64,-271.78 127,-312.42 -109.22,-109.22 373.38,-193.04 434.34,-134.62zm-4770.12 -76.2c60.96,22.86 157.48,53.34 218.44,60.96 269.24,35.56 304.8,60.96 127,88.9 -406.4,63.5 -734.06,284.48 -1071.88,703.58 -223.52,276.86 -307.34,502.92 -342.9,949.96 -25.4,314.96 -165.1,668.02 -292.1,726.44 -68.58,30.48 -73.66,15.24 -30.48,-111.76 83.82,-246.38 99.06,-599.44 38.1,-1160.78 -35.56,-307.34 7.62,-431.8 238.76,-734.06 68.58,-88.9 66.04,-104.14 45.72,-127 -83.82,-50.8 -22.86,-111.76 58.42,-58.42 162.56,101.6 -91.44,-226.06 142.24,-111.76 111.76,53.34 210.82,-2.54 119.38,-68.58 -104.14,-76.2 22.86,-96.52 165.1,-22.86 60.96,25.4 289.56,35.56 111.76,-43.18 -200.66,-91.44 -96.52,-134.62 121.92,-53.34 119.38,45.72 292.1,58.42 292.1,30.48 0,-17.78 -157.48,-73.66 -180.34,-91.44 -68.58,-50.8 119.38,-35.56 238.76,22.86zm-45.72 711.2c53.34,83.82 -116.84,314.96 -304.8,411.48 -165.1,83.82 -279.4,-53.34 -149.86,-177.8 281.94,-274.32 396.24,-322.58 454.66,-233.68zm1821.18 -1953.26c530.86,119.38 528.32,124.46 162.56,472.44 -309.88,294.64 -388.62,439.42 -388.62,642.62 0,45.72 -15.24,45.72 480.06,-7.62 464.82,-50.8 568.96,-50.8 784.86,38.1 111.76,45.72 111.76,43.18 187.96,7.62 119.38,-55.88 180.34,-15.24 96.52,58.42 -81.28,60.96 -27.94,114.3 76.2,76.2 134.62,-50.8 231.14,-15.24 119.38,45.72 -134.62,68.58 -30.48,111.76 60.96,73.66 111.76,-45.72 154.94,-7.62 73.66,60.96 -124.46,101.6 208.28,134.62 73.66,215.9 -35.56,15.24 -106.68,254 -154.94,508 -40.64,210.82 -106.68,195.58 -106.68,-20.32 0,-584.2 -307.34,-835.66 -1092.2,-876.3 -680.72,-35.56 -972.82,-15.24 -957.58,73.66 0,38.1 7.62,38.1 269.24,38.1 546.1,0 805.18,330.2 769.62,988.06 -17.78,373.38 -50.8,434.34 -327.66,642.62 -226.06,172.72 -368.3,322.58 -449.58,464.82 -88.9,154.94 -91.44,30.48 -134.62,-88.9 -104.14,-276.86 -530.86,-952.5 -645.16,-1033.78 -50.8,-38.1 -53.34,-38.1 -27.94,-193.04 48.26,-322.58 88.9,-398.78 193.04,-414.02 111.76,-15.24 695.96,-157.48 756.92,-185.42 96.52,-45.72 -269.24,5.08 -523.24,73.66 -279.4,73.66 -307.34,76.2 -271.78,15.24 15.24,-45.72 541.02,-180.34 668.02,-180.34 73.66,0 73.66,-27.94 0,-43.18 -60.96,-15.24 -203.2,7.62 -434.34,73.66 -325.12,91.44 -38.1,-78.74 -83.82,-254 -35.56,-142.24 22.86,-449.58 134.62,-629.92 289.56,-452.12 -182.88,33.02 -231.14,-104.14 -38.1,-111.76 233.68,-259.08 523.24,-292.1 187.96,-20.32 195.58,-88.9 22.86,-165.1 -185.42,-81.28 106.68,-142.24 375.92,-81.28zm-845.82 1849.12c-203.2,66.04 -218.44,81.28 -195.58,96.52 7.62,15.24 396.24,-91.44 492.76,-134.62 134.62,-60.96 -111.76,-30.48 -297.18,38.1zm111.76 104.14c-99.06,15.24 -314.96,111.76 -314.96,134.62 0,60.96 307.34,-73.66 353.06,-81.28 193.04,-40.64 106.68,-71.12 -38.1,-53.34zm-83.82 165.1c-73.66,30.48 -119.38,73.66 -96.52,96.52 55.88,43.18 381,-198.12 96.52,-96.52zm22.86 172.72c-99.06,50.8 104.14,48.26 104.14,-15.24 0,-22.86 -58.42,-22.86 -104.14,15.24z"/>
   <path class="fil6" d="M13441.37 3391.61c347.98,518.16 815.34,487.68 972.82,563.88 154.94,76.2 76.2,568.96 -347.98,353.06 -424.18,-218.44 -508,-449.58 -627.38,-561.34 -127,-218.44 -345.44,-873.76 2.54,-355.6z"/>
   <path class="fil7" d="M9926.01 4493.97c10.16,251.46 -33.02,185.42 7.62,624.84 40.64,439.42 60.96,779.78 406.4,947.42 347.98,165.1 617.22,-472.44 226.06,-772.16 -391.16,-299.72 -406.4,-886.46 -406.4,-965.2 -2.54,-248.92 -243.84,-83.82 -233.68,165.1z"/>
   <path class="fil8" d="M9324.03 1984.45c99.06,63.5 297.18,370.84 284.48,508 -12.7,137.16 -12.7,322.58 -248.92,568.96 -233.68,248.92 -307.34,25.4 -233.68,-99.06 73.66,-121.92 195.58,-35.56 226.06,-383.54 33.02,-345.44 -27.93,-594.3 -27.94,-594.36z"/>
   <path class="fil9" d="M7726.37 2914.09c-185.42,220.98 -543.56,1892.3 -469.9,2672.08 73.66,779.78 215.9,1102.36 688.34,1234.44 474.98,132.08 982.98,-180.34 1229.36,238.76 246.38,421.64 170.18,1071.88 812.8,1071.88 645.16,0 1120.14,-1059.18 1498.6,-1277.62 157.48,-91.44 248.92,-259.08 297.18,-469.9 88.9,27.94 233.68,25.4 185.42,0 -33.02,-22.86 -114.3,-50.8 -172.72,-66.04 5.08,-38.1 10.16,-78.74 12.7,-119.38 91.44,17.78 152.4,7.62 5.08,-58.42 2.54,-45.72 5.08,-91.44 5.08,-137.16 83.82,17.78 132.08,12.7 0,-48.26 -2.54,-53.34 -5.08,-109.22 -7.62,-165.1 10.16,5.08 20.32,7.62 30.48,10.16 88.9,20.32 76.2,7.62 -33.02,-48.26 -5.08,-48.26 -10.16,-96.52 -15.24,-144.78 185.42,83.82 167.64,73.66 167.64,43.18 0,-20.32 -71.12,-63.5 -177.8,-116.84 -12.7,-99.06 -27.94,-198.12 -48.26,-297.18 414.02,408.94 431.8,447.04 487.68,751.84 63.5,342.9 30.48,911.86 -60.96,1122.68 -20.32,66.04 -22.86,63.5 -185.42,66.04 -541.02,12.7 -985.52,434.34 -1137.92,1079.5 -88.9,365.76 -83.82,355.6 -495.3,477.52 -269.24,81.28 -373.38,129.54 -576.58,254 -124.46,78.74 -127,76.2 -492.76,76.2 -502.92,0 -502.92,0 -403.86,-127 266.7,-345.44 294.64,-896.62 88.9,-1460.5 -71.12,-193.04 -177.8,-246.38 -149.86,-73.66 71.12,447.04 -22.86,713.74 -292.1,838.2 -256.54,116.84 -579.12,-15.24 -584.2,-233.68 -2.54,-170.18 -261.62,-454.66 -419.1,-454.66 -203.2,0 -342.9,-210.82 -373.38,-548.64 -15.24,-162.56 -96.52,-254 -180.34,-200.66 -157.48,96.52 -231.14,-96.52 -157.48,-403.86 30.48,-127 27.94,-127 -30.48,-375.92 -55.88,-243.84 -58.42,-510.54 -127,-746.76 -45.72,-114.3 7.62,-1145.54 60.96,-1198.88 27.94,-27.94 200.66,749.3 200.66,914.4 0,215.9 104.14,200.66 119.38,-22.86 22.86,-322.58 111.76,-706.12 203.2,-825.5 99.06,-127 22.86,-111.76 22.86,-200.66 0,-147.32 -203.2,187.96 -203.2,165.1 -45.72,-22.86 236.22,-942.34 284.48,-1137.92 45.72,-180.34 261.62,-436.88 518.16,-607.06 124.46,-83.82 312.42,-180.34 312.42,-165.1 0,7.62 -22.86,81.28 -50.8,172.72 -60.96,193.04 -60.96,365.76 7.62,457.2 127,170.18 462.28,838.2 576.58,1122.68 73.66,187.96 88.9,208.28 149.86,231.14 127,50.8 238.76,15.24 261.62,-88.9 25.4,-129.54 99.06,-264.16 215.9,-403.86 -124.46,601.98 -495.3,1041.4 -487.68,767.08 10.16,-274.32 -556.26,-495.3 -482.6,-787.4 76.2,-292.1 -627.29,-754.32 -627.38,-754.38zm2306.32 -909.32c0,7.62 0,15.24 2.54,27.94 -5.08,-15.24 -5.08,-25.4 -2.54,-27.94zm3169.92 627.38c66.04,15.24 139.7,43.18 215.9,81.28 -281.94,-86.36 -820.42,-104.14 -632.46,525.78 27.94,88.9 -256.54,568.96 17.78,1143 43.18,91.44 -160.02,25.4 -363.22,-25.4 -942.34,-236.22 1181.1,1450.34 1955.8,1384.3 919.48,-76.2 607.06,-1216.66 1564.64,-1402.08 292.1,-55.88 609.6,-243.84 678.18,-497.84 243.84,35.56 508,68.58 792.48,101.6 645.16,73.66 731.52,121.92 922.02,508 182.88,375.92 292.1,1229.36 142.24,1183.64 -17.78,-5.08 -165.1,-33.02 -165.1,-53.34 -7.62,-1242.06 -1706.88,-1734.82 -2748.28,-800.1 -134.62,119.38 -284.48,337.82 -284.48,411.48 0,142.24 -15.24,187.96 -73.66,172.72 -60.96,-15.24 -60.96,-15.24 -30.48,53.34 200.66,332.74 -223.52,777.24 -223.52,1137.92 0,134.62 0,134.62 -149.86,134.62 -142.24,0 -561.34,-60.96 -652.78,-99.06 -73.66,-22.86 -83.82,-22.86 -96.52,30.48 -45.72,172.72 -292.1,58.42 -403.86,-172.72 -109.22,-220.98 -459.74,-261.62 -629.92,-434.34 -111.76,-96.52 66.04,302.26 284.48,637.54 104.14,157.48 233.68,434.34 218.44,449.58 -15.24,15.24 -233.68,-195.58 -464.82,-441.96 -238.76,-254 -289.56,-353.06 -322.58,-553.72 -78.74,-487.68 -114.3,-530.86 -576.58,-906.78 -226.06,-185.42 -314.96,-261.62 -320.04,-299.72 -60.96,-322.58 -55.88,-612.14 12.7,-972.82 20.32,-96.52 17.78,-99.06 134.62,-15.24 88.9,63.5 218.44,134.62 330.2,190.5 350.52,167.64 294.64,40.64 195.58,-294.64 -264.16,-891.54 -7.62,-1341.12 673.1,-1176.02zm378.46 175.26zm3827.78 1374.14c-269.24,53.34 -304.8,60.96 -292.1,76.2 30.48,27.94 683.26,-76.2 683.26,-106.68 0,-27.94 -119.38,-12.7 -391.16,30.48zm441.96 76.2c-17.78,2.54 -370.84,48.26 -307.34,88.9 20.32,12.7 601.98,-45.72 472.44,-96.52 -45.72,-22.86 -30.48,-22.86 -165.1,7.62zm45.72 185.42c-68.58,15.24 -111.76,76.2 -53.34,68.58 205.74,0 411.48,-157.48 53.34,-68.58zm238.76 99.06c-7.62,2.54 -218.44,88.9 -119.38,88.9 17.78,0 373.38,-40.64 269.24,-81.28 -35.56,-15.24 -119.38,-15.24 -149.86,-7.62z"/>
   <path class="fil10" d="M9423.09 252.17c-251.46,182.88 -800.1,1338.58 -584.2,1369.06 0,27.94 2.54,35.56 109.22,38.1 22.86,12.7 43.18,27.94 63.5,45.72 -76.2,10.16 -185.42,33.02 -330.2,73.66 -325.12,91.44 -38.1,-78.74 -83.82,-254 -35.56,-142.24 22.86,-449.58 134.62,-629.92 289.56,-452.12 -182.88,33.02 -231.14,-104.14 -38.1,-111.76 233.68,-259.08 523.24,-292.1 187.96,-20.32 195.58,-88.9 22.86,-165.1 -185.42,-81.28 106.68,-142.24 375.92,-81.28zm-368.3 1501.14c17.78,25.4 33.02,50.8 45.72,81.28 -109.22,17.78 -259.08,45.72 -381,78.74 -279.4,73.66 -307.34,76.2 -271.78,15.24 15.24,-40.64 424.18,-149.86 607.06,-175.26zm60.96 124.46c53.34,190.5 -5.08,480.06 -314.96,845.82 -121.92,147.32 -96.52,358.14 -30.48,556.26 -165.1,-284.48 -373.38,-594.36 -449.58,-647.7 -50.8,-38.1 -53.34,-38.1 -27.94,-193.04 48.26,-322.58 88.9,-398.78 193.04,-414.02 83.82,-10.16 434.34,-93.98 629.92,-147.32zm-114.3 1899.92c2.54,7.62 5.08,15.24 7.62,20.32 -2.54,-5.08 -5.08,-12.7 -7.62,-20.32zm-1534.16 -1938.02c-1313.18,-238.76 -739.14,1635.76 -1137.92,1590.04 5.08,-185.42 -5.08,-406.4 -35.56,-678.18 -35.56,-307.34 7.62,-431.8 238.76,-734.06 68.58,-88.9 66.04,-104.14 45.72,-127 -83.82,-50.8 -22.86,-111.76 58.42,-58.42 162.56,101.6 -91.44,-226.06 142.24,-111.76 111.76,53.34 210.82,-2.54 119.38,-68.58 -104.14,-76.2 22.86,-96.52 165.1,-22.86 60.96,25.4 289.56,35.56 111.76,-43.18 -200.66,-91.44 -96.52,-134.62 121.92,-53.34 119.38,45.72 292.1,58.42 292.1,30.48 0,-17.78 -157.48,-73.66 -180.34,-91.44 -68.58,-50.8 119.38,-35.56 238.76,22.86 60.96,22.86 157.48,53.34 218.44,60.96 269.24,35.56 304.8,60.96 127,88.9 -190.5,30.48 -360.68,93.98 -525.78,195.58zm1109.98 261.62c-203.2,66.04 -218.44,81.28 -195.58,96.52 7.62,15.24 396.24,-91.44 492.76,-134.62 134.62,-60.96 -111.76,-30.48 -297.18,38.1zm111.76 104.14c-99.06,15.24 -314.96,111.76 -314.96,134.62 0,60.96 307.34,-73.66 353.06,-81.28 193.04,-40.64 106.68,-71.12 -38.1,-53.34zm-83.82 165.1c-73.66,30.48 -119.38,73.66 -96.52,96.52 55.88,43.18 381,-198.12 96.52,-96.52zm22.86 172.72c-99.06,50.8 104.14,48.26 104.14,-15.24 0,-22.86 -58.42,-22.86 -104.14,15.24zm3652.52 1308.1c0,50.8 -40.64,15.24 -154.94,-73.66 -180.34,-134.62 -307.34,-284.48 -441.96,-530.86 -149.86,-271.78 -182.88,-208.28 -60.96,111.76 20.32,53.34 30.48,149.86 30.48,269.24 0,210.82 -22.86,299.72 -45.72,157.48 0,-45.72 -53.34,-165.1 -104.14,-269.24 -104.14,-213.36 -195.58,-500.38 60.96,-657.86 66.04,-48.26 317.5,-271.78 396.24,-271.78 96.52,0 119.38,-88.9 73.66,-276.86 -7.62,-58.42 -7.62,-111.76 22.86,-215.9 68.58,-238.76 45.72,-292.1 -45.72,-96.52 -73.66,162.56 -142.24,170.18 -154.94,20.32 -25.4,-134.62 167.64,-271.78 127,-312.42 -53.34,-53.34 33.02,-99.06 142.24,-127 127,398.78 71.12,914.4 -129.54,1112.52 -259.08,259.08 137.16,1016 274.32,1150.62 2.54,5.08 5.08,7.62 10.16,10.16zm-1158.24 -815.34c43.18,7.62 43.18,15.24 43.18,180.34 0,297.18 309.88,647.7 165.1,922.02 -30.48,43.18 -5.08,81.28 142.24,238.76 91.44,96.52 104.14,127 111.76,208.28 15.24,91.44 15.24,91.44 -58.42,7.62 -314.96,-342.9 -599.44,-1076.96 -599.44,-1549.4 0,-213.36 71.12,-48.26 195.58,-7.62z"/>
   <path class="fil11" d="M12049.45 7445.45c86.36,38.1 203.2,147.32 317.5,287.02 -45.72,-2.54 -93.98,-2.54 -144.78,0 -139.7,-137.16 -373.38,-299.72 -373.38,-241.3 0,15.24 193.04,172.72 284.48,246.38 -30.48,5.08 -60.96,7.62 -91.44,15.24 -66.04,-53.34 -147.32,-116.84 -185.42,-142.24 -88.9,-53.34 -91.44,-15.24 5.08,76.2 35.56,30.48 68.58,58.42 96.52,83.82 -38.1,10.16 -78.74,20.32 -116.84,35.56 12.7,-38.1 -289.56,-190.5 -121.92,-38.1 33.02,27.94 58.42,45.72 76.2,55.88 -426.72,172.72 -685.8,591.82 -147.32,1054.1 388.62,330.2 889,-86.36 1092.2,-464.82 106.68,419.1 15.24,855.98 -203.2,927.1 -106.68,35.56 -106.68,38.1 -60.96,-111.76 38.1,-99.06 38.1,-149.86 30.48,-269.24 -15.24,-218.44 -35.56,-261.62 -53.34,-121.92 -27.94,248.92 -157.48,508 -246.38,518.16 -187.96,20.32 -1318.26,-480.06 -1318.26,-584.2 0,-7.62 22.86,-22.86 53.34,-38.1 457.2,-203.2 165.1,-982.98 635,-1234.44 157.48,-83.82 353.06,-104.14 472.44,-53.34zm-342.9 2067.56c226.06,55.88 419.1,157.48 586.74,309.88 -68.58,7.62 -172.72,0 -292.1,0 -101.6,-76.2 -322.58,-213.36 -416.56,-251.46 -170.18,-66.04 -177.8,-43.18 -7.62,53.34 91.44,53.34 231.14,137.16 314.96,195.58l10.16 5.08c-48.26,2.54 -93.98,5.08 -142.24,10.16 -63.5,-50.8 -162.56,-119.38 -241.3,-165.1 -104.14,-60.96 -195.58,-76.2 -180.34,-38.1 0,10.16 203.2,137.16 345.44,215.9 -248.92,48.26 -477.52,182.88 -515.62,556.26 -71.12,728.98 220.98,957.58 756.92,965.2 157.48,2.54 525.78,-104.14 746.76,-271.78l0 15.24c-5.08,406.4 -68.58,749.3 -127,749.3 -45.72,0 -45.72,-7.62 -45.72,-127 0,-58.42 -15.24,-165.1 -30.48,-215.9 -22.86,-106.68 -20.32,-104.14 -43.18,27.94 -91.44,500.38 -96.52,629.92 -556.26,441.96 -1005.84,-406.4 -1173.48,-381 -1706.88,-353.06 -15.24,0 76.2,-109.22 165.1,-200.66 307.34,-312.42 449.58,-711.2 449.58,-1280.16 0,-388.62 165.1,-571.5 576.58,-650.24 165.1,-33.02 180.34,-30.48 353.06,7.62zm1137.92 1320.8c111.76,419.1 88.9,731.52 -83.82,916.94 -78.74,86.36 -81.28,81.28 -58.42,15.24 12.7,-76.2 12.7,-510.54 -5.08,-688.34 86.36,-73.66 144.78,-154.94 147.32,-243.84zm-1579.88 -1127.76c22.86,30.48 238.76,172.72 269.24,172.72 127,0 -320.04,-269.24 -269.24,-172.72zm-106.68 68.58c0.01,0.01 38.1,38.1 91.44,73.66 104.14,91.44 157.48,66.04 50.8,-27.94 -50.8,-48.26 -142.24,-76.2 -142.24,-45.72z"/>
   <path class="fil12" d="M12173.91 8057.59c78.74,-30.48 248.92,121.92 274.32,304.8 12.7,104.14 -104.14,241.3 -180.34,177.8 -147.32,-124.46 -477.52,-330.2 -93.98,-482.6zm-58.42 2164.08c91.44,114.3 220.98,337.82 213.36,474.98 -10.16,134.62 -68.58,345.44 -213.36,279.4 -142.24,-68.58 -50.8,-152.4 -228.6,-398.78 -266.7,-358.14 139.7,-467.36 228.6,-355.6z"/>
   <path class="fil13" d="M19671.99 9002.47c73.66,63.5 149.86,149.86 215.9,241.3 -157.48,172.72 -464.82,101.6 -952.5,160.02 -452.12,53.34 -713.74,-68.58 -947.42,160.02 -208.28,27.94 -439.42,66.04 -698.5,114.3 -208.28,35.56 -373.38,66.04 -381,58.42 -7.62,-7.62 -15.24,-45.72 -15.24,-81.28 -22.86,-127 0,-127 353.06,-106.68 485.14,30.48 571.5,5.08 485.14,-147.32 -50.8,-93.98 347.98,-88.9 449.58,-86.36 345.44,7.62 566.42,-177.8 868.68,-154.94 172.72,12.7 345.44,22.86 515.62,60.96 127,38.1 149.86,22.86 68.58,-22.86 -53.34,-38.1 -187.96,-73.66 -396.24,-111.76 -129.54,-25.4 284.48,-170.18 312.42,-180.34 0.01,0.01 53.34,45.72 121.92,96.52zm-5430.52 -601.98c-99.06,88.9 -187.96,177.8 -228.6,416.56 -40.64,243.84 129.54,-160.02 355.6,-195.58 -40.64,15.24 91.44,482.6 91.44,561.34 0,60.96 -530.86,561.34 -642.62,599.44 -55.88,27.94 -284.48,208.28 -322.58,208.28 -22.86,0 -449.58,434.34 -449.58,457.2 0,86.36 -172.71,-253.97 -172.72,-254 -91.44,-149.86 -88.9,-149.86 -50.8,-195.58 50.8,-50.8 96.52,-170.18 96.52,-246.38 0,-81.28 22.86,-81.28 60.96,0 35.56,81.28 43.18,203.2 0,276.86 -60.96,119.38 27.94,149.86 170.18,60.96 218.44,-137.16 251.46,-195.58 276.86,-441.96 43.18,-391.16 60.96,-396.24 129.54,-68.58 0,7.62 20.32,-7.62 43.18,-30.48 88.9,-81.28 25.4,-533.4 -88.9,-635 -88.9,-78.74 12.7,-109.22 172.72,-53.34 147.32,55.88 177.8,-7.62 104.14,-193.04 -68.58,-172.72 -12.7,-365.76 134.62,-510.54 83.82,-81.28 127,-88.9 149.86,-30.48 48.26,106.68 111.76,205.74 170.18,274.32zm129.54 220.98c142.24,-22.86 182.88,502.92 373.38,66.04 48.26,-106.68 -127,-408.94 -121.92,-596.9 17.78,-38.1 38.1,-78.74 55.88,-121.92 129.54,-88.9 292.1,706.12 574.04,124.46 50.8,-101.6 -358.14,-292.1 -342.9,-396.24 7.62,20.32 58.42,55.88 149.86,101.6 368.3,182.88 342.9,378.46 -96.52,876.3 -78.74,86.36 -76.2,88.9 -91.44,-121.92 -22.86,-335.28 -88.9,-568.96 -142.24,-515.62 -15.24,15.24 -15.24,60.96 7.62,180.34 96.52,500.38 76.2,650.24 -104.14,815.34 -104.14,96.52 -104.14,96.52 -127,-53.34 -22.86,-142.24 -104.14,-358.14 -134.62,-358.14zm546.1 -942.34c55.88,-76.2 172.72,48.26 322.58,-228.6 -2.54,121.92 88.9,398.78 43.18,386.08 -25.4,-27.94 -340.36,-170.18 -365.76,-157.48zm3520.44 -1955.8c-53.34,302.26 -99.06,553.72 33.02,497.84 734.06,-307.34 1115.06,-421.64 401.32,134.62 -33.02,25.4 -20.32,83.82 20.32,111.76 1003.3,711.2 137.16,495.3 2.54,294.64 -60.96,-91.44 -40.64,142.24 -129.54,121.92 15.24,-48.26 -187.96,-365.76 -172.72,-365.76 30.48,0 383.54,208.28 515.62,307.34 144.78,104.14 218.44,134.62 218.44,96.52 0,-30.48 -515.62,-386.08 -650.24,-449.58 -157.48,-71.12 -152.4,-71.12 -38.1,-127 139.7,-71.12 523.24,-299.72 553.72,-330.2 53.34,-58.42 -22.86,-30.48 -284.48,119.38 -241.3,142.24 -622.3,330.2 -665.48,330.2 -15.24,0 -7.62,-35.56 12.7,-73.66 48.26,-81.28 83.82,-322.58 83.82,-533.4 0,-132.08 17.78,-170.18 99.06,-134.62zm261.62 1140.46c-116.84,-45.72 -302.26,-142.24 -335.28,-137.16 -53.34,10.16 -35.56,101.6 -55.88,160.02 -144.78,388.62 330.2,104.14 492.76,106.68 101.6,0 393.7,20.32 612.14,71.12 -53.34,53.34 -83.82,55.88 -332.74,60.96 -284.48,2.54 -441.96,25.4 -668.02,104.14 -116.84,40.64 -119.38,35.56 -177.8,0 -205.74,-127 -292.1,185.42 -518.16,185.42 -50.8,0 -40.64,-10.16 127,-177.8 287.02,-281.94 441.96,-546.1 383.54,-637.54 -30.48,-50.8 -38.1,-43.18 81.28,-96.52 119.38,-53.34 96.52,-73.66 284.48,208.28 48.26,73.66 83.82,121.92 106.68,152.4zm-1757.68 3213.1c-81.28,-81.28 -226.06,-175.26 -360.68,-231.14 208.28,-17.78 513.08,2.54 584.2,170.18 43.18,99.06 7.62,193.04 -106.68,116.84 -33.02,-20.32 -73.66,-40.64 -116.84,-55.88zm-2186.94 116.84c-60.96,5.08 -124.46,22.86 -172.72,71.12 -48.26,45.72 -104.14,58.42 -149.86,63.5 15.24,-22.86 22.86,-48.26 20.32,-73.66 -7.62,-83.82 185.42,-127 299.72,-60.96l2.54 0zm-381 187.96c17.78,22.86 50.8,53.34 104.14,101.6 22.86,17.78 50.8,40.64 83.82,66.04l2.54 10.16c15.24,53.34 -35.56,58.42 -119.38,15.24 -88.9,-45.72 -635,-50.8 -576.58,-7.62 129.54,66.04 398.78,139.7 322.58,330.2 -43.18,106.68 -309.88,-226.06 -492.76,-314.96 -279.4,-132.08 -60.96,-226.06 365.76,-149.86 114.3,20.32 233.68,-2.54 309.88,-50.8zm-1148.08 -1656.08c172.72,15.24 187.96,30.48 111.76,106.68 -99.06,96.52 -187.96,-10.16 -299.72,-38.1 -88.9,-22.86 -96.52,-104.14 -7.62,-91.44 38.1,0 119.38,15.24 195.58,22.86zm2044.7 -1330.96c53.34,-116.84 228.6,254 289.56,129.54 66.04,-129.54 -198.12,-594.36 -73.66,-683.26 152.4,-111.76 -452.12,-673.1 -66.04,-713.74 210.82,-22.86 525.78,459.74 553.72,472.44 182.88,101.6 -581.66,-891.54 -312.42,-1170.94 127,-132.08 480.06,734.06 571.5,596.9 322.58,-490.22 154.94,-1102.36 482.6,-868.68 129.54,91.44 -129.54,627.38 193.04,787.4 259.08,127 1153.16,-149.86 1036.32,91.44 -86.36,175.26 -193.04,109.22 -284.48,213.36 -93.98,101.6 -106.68,269.24 -254,330.2 -297.18,119.38 -1056.64,48.26 -891.54,144.78 111.76,66.04 -121.92,294.64 127,327.66 655.32,91.44 513.08,561.34 -434.34,561.34 -68.58,0 -401.32,363.22 -33.02,271.78 226.06,-55.88 541.02,360.68 401.32,391.16 -906.78,190.5 -487.68,233.68 -398.78,414.02 38.1,83.82 -345.44,33.02 -292.1,215.9 45.72,149.86 -55.88,373.38 -177.8,259.08 -78.74,-73.66 -312.42,-406.4 -548.64,-177.8 -76.2,71.12 124.46,467.36 228.6,645.16 -106.68,5.08 -10.16,27.94 50.8,86.36 2.54,2.54 2.54,2.54 2.54,2.54 22.86,45.72 185.42,-5.08 60.96,106.68 -60.96,58.42 -375.92,76.2 -480.06,27.94 -157.48,-71.12 -815.34,119.38 -1437.64,426.72 -134.62,68.58 -246.38,119.38 -261.62,127 -7.62,0 7.62,-12.7 30.48,-43.18 111.76,-127 469.9,-317.5 756.92,-403.86 223.52,-71.12 426.72,-264.16 335.28,-322.58 -22.86,-15.24 15.24,-111.76 53.34,-134.62 22.86,-22.86 467.36,-35.56 411.48,-127 -22.86,-30.48 83.82,-5.08 231.14,50.8 129.54,48.26 165.1,53.34 129.54,-7.62 -83.82,-139.7 -472.44,-144.78 -629.92,-162.56 -45.72,-38.1 292.1,-414.02 365.76,-421.64 292.1,-71.12 543.56,-205.74 734.06,142.24 50.8,91.44 91.44,121.92 104.14,68.58 66.04,-127 -243.84,-299.72 -43.18,-299.72 40.64,0 383.54,-5.08 193.04,-53.34 -231.14,-55.88 -642.62,-43.18 -904.24,30.48 -30.48,10.16 -2.54,-38.1 134.62,-215.9 378.46,-492.76 744.22,-1041.4 957.58,-1633.22 33.02,-88.9 45.72,-104.14 76.2,-96.52 20.32,7.62 83.82,-27.94 185.42,-111.76 317.5,-261.62 314.96,-264.16 584.2,-276.86 149.86,-7.62 269.24,0 322.58,15.24 66.04,15.24 96.52,12.7 111.76,0 30.48,-30.48 -35.56,-58.42 -403.86,-114.3 -172.72,-25.4 322.58,-175.26 665.48,-200.66 172.72,-12.7 233.68,-53.34 142.24,-91.44 -73.66,-20.32 -396.24,10.16 -599.44,60.96 -274.32,68.58 -637.54,289.56 -896.62,538.48 -144.78,139.7 -142.24,142.24 -30.48,-200.66 88.9,-276.86 246.38,-899.16 231.14,-937.26 0,-15.24 -218.44,576.58 -299.72,838.2 -45.72,157.48 -53.34,160.02 -104.14,7.62 -83.82,-259.08 -403.86,-741.68 -500.38,-741.68 -38.1,0 -27.94,15.24 81.28,137.16 121.92,132.08 246.38,365.76 322.58,612.14 30.48,76.2 58.42,172.72 81.28,203.2 38.1,73.66 2.54,203.2 -172.72,576.58 -116.84,254 -142.24,269.24 -142.24,119.38 0,-307.34 -238.76,-1010.92 -342.9,-1010.92 -53.34,0 -48.26,60.96 38.1,254 86.36,195.58 134.62,337.82 177.8,553.72 58.42,287.02 -83.82,-15.24 -154.94,-15.24 -45.72,0 -25.4,68.58 20.32,114.3 180.34,172.72 215.9,365.76 106.68,553.72 -114.3,193.04 -248.92,403.86 -264.16,403.86 -20.32,0 -45.72,-673.1 -147.32,-673.1zm2402.84 167.64c-106.68,86.36 -210.82,190.5 -149.86,266.7 43.18,55.88 177.8,-276.86 347.98,-256.54 73.66,7.62 -83.82,467.36 134.62,426.72 576.58,-109.22 1790.7,-200.66 1678.94,-45.72 -53.34,73.66 -949.96,99.06 -1414.78,254 -111.76,38.1 515.62,477.52 401.32,533.4 -220.98,106.68 -1341.12,-525.78 -1254.76,-317.5 187.96,452.12 299.72,777.24 106.68,784.86 -436.88,17.78 -368.3,-424.18 -538.48,-375.92 -269.24,73.66 -452.12,530.86 -243.84,642.62l-2.54 2.54 0 2.54 -2.54 0 0 2.54c-7.62,12.7 -12.7,27.94 -12.7,45.72l0 2.54 0 2.54c0,7.62 0,15.24 0,22.86l0 7.62 0 2.54c0,7.62 2.54,12.7 2.54,17.78l0 2.54 0 2.54 0 2.54 0 2.54 0 2.54 2.54 2.54 0 2.54 0 2.54 0 2.54 0 2.54c7.62,45.72 0,76.2 -7.62,76.2 -175.26,0 -391.16,66.04 -568.96,88.9 -127,15.24 -63.5,96.52 -215.9,73.66 -172.72,-22.86 -238.76,22.86 -91.44,68.58 149.86,45.72 180.34,127 60.96,172.72l-2.54 0 -2.54 0 0 2.54 -2.54 0 -2.54 0 -2.54 2.54 -2.54 0 -2.54 0c-5.08,5.08 -12.7,7.62 -17.78,10.16l-2.54 2.54 -2.54 0 0 2.54 -2.54 0 -2.54 2.54 -2.54 0 0 2.54 -2.54 0 0 2.54 -2.54 0 0 2.54 -2.54 0 0 2.54 -2.54 0c-27.94,33.02 20.32,48.26 -114.3,10.16l-2.54 0 -2.54 0 -2.54 0 -2.54 -2.54 -12.7 -2.54 -2.54 0 -2.54 0 -2.54 -2.54 -2.54 0 -2.54 0 -5.08 -2.54 -5.08 0 -5.08 -2.54 -2.54 0c-10.16,-2.54 -17.78,-2.54 -25.4,-5.08l-2.54 0 -2.54 0 -2.54 0 -2.54 -2.54 -2.54 0 -5.08 0 -2.54 0 -2.54 0 -2.54 -2.54 -5.08 0 -2.54 0 -2.54 0 -2.54 0 -5.08 0 -2.54 -2.54 -5.08 0 -5.08 0 -2.54 0 -2.54 0 -2.54 0 -2.54 0 -2.54 0 -2.54 0 -2.54 0 -2.54 0 -5.08 0 -2.54 0 -2.54 0 -2.54 0 -2.54 0 -2.54 0 -2.54 0 -5.08 0 -2.54 0 -2.54 0 -2.54 2.54 -2.54 0 -2.54 0 -2.54 0 -2.54 0 -2.54 0 -2.54 2.54 -2.54 0 -2.54 0 -2.54 0 -2.54 2.54 -2.54 0 -2.54 0 -2.54 2.54 -2.54 0 -2.54 0 -2.54 2.54 -2.54 0 0 2.54 -2.54 0 -2.54 2.54 -2.54 0 0 2.54 -2.54 0 -5.08 5.08 -2.54 0 -2.54 0 0 2.54c-60.96,-2.54 -109.22,-2.54 -124.46,-2.54 -66.04,0 -340.36,-104.14 -358.14,7.62 -10.16,55.88 -71.12,53.34 -147.32,50.8l-2.54 -2.54 -5.08 -5.08c-2.54,-5.08 -7.62,-10.16 -12.7,-17.78l-2.54 0 -2.54 -5.08 -5.08 -5.08c-38.1,-43.18 -38.1,-43.18 0,-58.42 223.52,-53.34 919.48,-71.12 919.48,-368.3 0,-215.9 604.52,-276.86 388.62,-599.44 -58.42,-88.9 -58.42,-91.44 68.58,-104.14 111.76,-10.16 114.3,-7.62 157.48,60.96 45.72,73.66 45.72,73.66 50.8,-15.24 0,-83.82 2.54,-78.74 142.24,-134.62 218.44,-86.36 525.78,-299.72 599.44,-419.1 38.1,-60.96 38.1,-60.96 149.86,172.72 68.58,119.38 129.54,266.7 149.86,327.66 40.64,119.38 53.34,142.24 91.44,127 58.42,-22.86 -111.76,-472.44 -248.92,-635 -111.76,-134.62 -96.52,-154.94 111.76,-210.82 368.3,-93.98 309.88,-114.3 876.3,254 294.64,193.04 307.34,195.58 307.34,149.86 0,-35.56 -454.66,-345.44 -635,-434.34 -53.34,-22.86 -91.44,-43.18 -91.44,-50.8 0,-22.86 546.1,-109.22 1026.16,-165.1 426.72,-48.26 726.44,-96.52 741.68,-111.76 58.42,-60.96 -922.02,22.86 -1526.54,127 -180.34,30.48 -337.82,53.34 -345.44,53.34 -7.62,0 5.08,-40.64 30.48,-91.44 43.18,-91.44 81.28,-508 38.1,-441.96 -15.24,22.86 -114.3,353.06 -142.24,495.3 -15.24,50.8 -30.48,60.96 -187.96,96.52 -208.28,48.26 -198.12,53.34 -149.86,-96.52 93.98,-299.72 58.42,-370.84 -142.24,-292.1 -91.44,35.56 15.24,-66.04 172.72,-157.48 157.48,-93.98 254,-127 284.48,-81.28l2.54 2.54 2.54 2.54 2.54 0 0 2.54 2.54 0 2.54 0 0 2.54 2.54 0zm-2801.62 -490.22c0,7.62 -43.18,30.48 -104.14,45.72 -73.66,27.94 -127,58.42 -187.96,127 -205.74,223.52 182.88,-78.74 127,66.04 -63.5,256.54 -81.28,556.26 -223.52,787.4 -35.56,58.42 -314.96,-246.38 -358.14,-203.2 0,22.86 241.3,198.12 269.24,231.14 60.96,63.5 -71.12,-43.18 -119.38,22.86 -38.1,38.1 -71.12,10.16 -114.3,-96.52 -91.44,-238.76 -444.5,22.86 -538.48,396.24 -25.4,106.68 -45.72,111.76 -81.28,53.34 -53.34,-68.58 -368.3,-83.82 -553.72,-30.48 -55.88,22.86 -137.16,-345.44 -157.48,-396.24 -43.18,-106.68 -45.72,-111.76 -15.24,-134.62 91.44,-45.72 226.06,-299.72 314.96,-254 73.66,35.56 127,96.52 119.38,119.38 -15.24,43.18 30.48,88.9 81.28,88.9 53.34,0 111.76,-66.04 149.86,-157.48 45.72,-134.62 350.52,-185.42 464.82,-81.28 50.8,45.72 180.34,-15.24 180.34,-83.82 7.62,-50.8 149.86,-251.46 246.38,-335.28 157.48,-139.7 457.2,-241.3 500.38,-165.1z"/>
   <path class="fil14" d="M2770.83 8245.55l10.16 10.16c53.34,43.18 83.82,58.42 134.62,58.42 238.76,0 205.74,421.64 142.24,388.62 -5.08,0 -93.98,-30.48 -218.44,-71.12 33.02,-137.16 0,-269.24 -68.58,-386.08zm55.88 546.1c45.72,142.24 -353.06,55.88 -614.68,-2.54 60.96,48.26 144.78,76.2 406.4,162.56 589.28,195.58 596.9,193.04 538.48,-30.48 -12.7,-27.94 -157.48,-78.74 -330.2,-129.54zm3393.44 1684.02c-81.28,-88.9 -238.76,-218.44 -398.78,-233.68 -182.88,-20.32 -520.7,-5.08 -716.28,-195.58 -314.96,-307.34 -444.5,-228.6 -843.28,-426.72 -223.52,-111.76 -467.36,-398.78 -655.32,-668.02 38.1,119.38 33.02,190.5 -7.62,142.24 -63.5,-63.5 -78.74,-243.84 -121.92,-330.2 -12.7,-22.86 -43.18,-53.34 -58.42,-53.34 -76.2,0 -45.72,142.24 119.38,480.06 187.96,381 223.52,424.18 515.62,472.44 119.38,17.78 152.4,27.94 218.44,88.9 111.76,104.14 568.96,284.48 627.38,246.38 7.62,-7.62 68.58,45.72 129.54,106.68 162.56,162.56 238.76,198.12 508,193.04 210.82,-2.54 218.44,0 307.34,53.34 119.38,71.12 231.14,111.76 375.92,124.46zm-2026.92 -1531.62c-45.72,-78.74 -83.82,-170.18 -78.74,-269.24 -15.24,-20.32 -35.56,-33.02 -60.96,-45.72 -88.9,-38.1 -335.28,-30.48 -335.28,7.62 0,22.86 40.64,48.26 238.76,172.72 81.28,48.26 160.02,93.98 236.22,134.62zm-551.18 711.2c76.2,104.14 111.76,121.92 314.96,157.48 104.14,17.78 157.48,35.56 180.34,58.42 134.62,172.72 441.96,314.96 680.72,314.96 22.86,0 83.82,35.56 142.24,88.9 109.22,99.06 73.66,104.14 7.62,88.9 -246.38,-58.42 -482.6,-73.66 -726.44,-170.18 -403.86,-160.02 -617.22,-350.52 -749.3,-695.96 -60.96,-160.02 147.32,152.4 149.86,157.48zm-3454.4 -449.58c-30.48,152.4 86.36,269.24 248.92,226.06 -27.94,35.56 -71.12,58.42 -121.92,58.42 -134.62,0 -233.68,-160.02 -165.1,-248.92 10.16,-12.7 22.86,-25.4 38.1,-35.56zm825.5 739.14c-53.34,111.76 -48.26,256.54 45.72,373.38 -124.46,-15.24 -213.36,-147.32 -142.24,-289.56 20.32,-40.64 55.88,-68.58 96.52,-83.82zm3398.52 1033.78c0,134.62 48.26,279.4 210.82,327.66 -170.18,78.74 -335.28,-101.6 -246.38,-281.94 10.16,-17.78 20.32,-33.02 35.56,-45.72zm-1905 -1282.7c-40.64,109.22 -53.34,238.76 5.08,368.3 -104.14,-35.56 -170.18,-154.94 -104.14,-281.94 20.32,-40.64 58.42,-71.12 99.06,-86.36zm-683.26 -558.8c-20.32,106.68 -15.24,228.6 35.56,317.5 -83.82,2.54 -162.56,-40.64 -162.56,-160.02 0,-86.36 55.88,-144.78 127,-157.48zm3962.4 2291.08c147.32,55.88 340.36,2.54 340.36,-142.24l-2.54 -35.56c38.1,68.58 12.7,205.74 -55.88,269.24 -114.3,104.14 -256.54,30.48 -281.94,-91.44zm530.86 -314.96c45.72,81.28 121.92,157.48 256.54,165.1 -111.76,58.42 -259.08,43.18 -259.08,-149.86 0,-5.08 2.54,-10.16 2.54,-15.24zm-584.2 -505.46c-55.88,139.7 -20.32,271.78 91.44,330.2 -264.16,63.5 -259.08,-274.32 -91.44,-330.2zm-2573.02 -152.4c-12.7,78.74 -5.08,210.82 132.08,345.44 -144.78,7.62 -254,-134.62 -172.72,-292.1 10.16,-20.32 22.86,-38.1 40.64,-53.34z"/>
   <path class="fil15" d="M5117.79 9797.49c193.04,38.1 256.54,-40.64 421.64,71.12 35.56,25.4 73.66,50.8 114.3,76.2 -10.16,-25.4 -22.86,-58.42 -35.56,-96.52 -50.8,-162.56 -88.9,-177.8 -342.9,-142.24 -165.1,25.4 -162.56,22.86 -157.48,91.44zm579.12 172.72c35.56,22.86 71.12,45.72 106.68,63.5 -10.16,-22.86 -17.78,-48.26 -27.94,-78.74 -73.66,-264.16 -134.62,-254 -81.28,7.62l2.54 7.62zm175.26 101.6c55.88,30.48 104.14,50.8 132.08,55.88 -40.64,-20.32 -165.1,-233.68 -137.16,-91.44 2.54,12.7 2.54,25.4 5.08,35.56zm139.7 58.42c139.7,17.78 236.22,-121.92 599.44,55.88 -17.78,-40.64 -33.02,-86.36 -40.64,-119.38 -25.4,-104.14 -264.16,-175.26 -457.2,-134.62 -127,25.4 -127,38.1 -104.14,127 10.16,48.26 10.16,68.58 2.54,71.12zm683.26 96.52c17.78,7.62 35.56,12.7 50.8,20.32 -5.08,-12.7 -12.7,-25.4 -17.78,-38.1 -60.96,-127 -99.06,-142.24 -45.72,-15.24 5.08,10.16 7.62,22.86 12.7,33.02zm109.22 38.1c30.48,7.62 55.88,10.16 81.28,7.62 -58.42,-104.14 -119.38,-134.62 -91.44,-33.02 5.08,7.62 7.62,17.78 10.16,25.4zm134.62 2.54c53.34,-7.62 119.38,-17.78 238.76,-10.16 170.18,10.16 317.5,40.64 426.72,71.12 -205.74,-86.36 -309.88,-215.9 -591.82,-172.72 -99.06,15.24 -96.52,40.64 -73.66,111.76zm-6624.32 -1097.28c2.54,58.42 45.72,111.76 132.08,187.96 7.62,7.62 15.24,12.7 20.32,17.78 17.78,-53.34 7.62,-116.84 -40.64,-162.56 -27.94,-27.94 -68.58,-43.18 -111.76,-43.18zm820.42 764.54c-45.72,121.92 -38.1,256.54 116.84,299.72 38.1,-81.28 15.24,-218.44 -55.88,-271.78 -20.32,-12.7 -40.64,-22.86 -60.96,-27.94zm3464.56 1000.76c-22.86,91.44 -5.08,198.12 114.3,269.24 27.94,-86.36 5.08,-200.66 -68.58,-246.38 -12.7,-10.16 -27.94,-17.78 -45.72,-22.86zm-1963.42 -1244.6c-33.02,93.98 -20.32,208.28 111.76,271.78 22.86,-81.28 2.54,-200.66 -63.5,-248.92 -15.24,-10.16 -33.02,-17.78 -48.26,-22.86zm3827.78 1254.76c22.86,76.2 83.82,180.34 236.22,177.8 5.08,-43.18 -10.16,-88.9 -55.88,-129.54 -48.26,-50.8 -116.84,-63.5 -180.34,-48.26zm-3124.2 -528.32c-27.94,78.74 -30.48,187.96 109.22,289.56 33.02,-83.82 7.62,-213.36 -60.96,-266.7 -15.24,-10.16 -30.48,-17.78 -48.26,-22.86z"/>
   <path class="fil0" d="M15859.45 8113.47c-193.04,27.94 -327.66,81.28 -327.66,119.38 0,43.18 177.8,-17.78 200.66,-22.86 106.68,-33.02 749.3,-12.7 749.3,-68.58 -15.24,-58.42 -337.82,-73.66 -622.3,-27.94z"/>
   <path class="fil0" d="M18188.63 6983.17c22.86,81.28 88.9,223.52 104.14,223.52 88.9,0 -114.3,-261.62 -104.14,-223.52z"/>
   <path class="fil0" d="M16601.13 7272.73c-200.66,30.48 -624.84,170.18 -624.84,200.66 0,45.72 63.5,35.56 190.5,-5.08 256.54,-78.74 337.82,-91.44 553.72,-45.72 210.82,45.72 231.14,-12.7 30.48,-66.04 -104.14,-27.94 -104.14,-27.94 15.24,-68.58 157.48,-50.8 96.52,-50.8 -165.1,-15.24z"/>
   <path class="fil0" d="M14363.39 7580.07c-180.34,236.22 -523.24,246.38 -795.02,307.34 -269.24,60.96 -297.18,60.96 -335.28,38.1 -30.48,-15.24 -60.96,-30.48 -76.2,-30.48 -35.56,0 -43.18,30.48 -15.24,45.72 96.52,55.88 -185.42,53.34 -185.42,119.38 0,15.24 7.62,22.86 22.86,15.24 223.52,-83.82 299.72,-71.12 515.62,111.76 76.2,66.04 149.86,119.38 157.48,104.14 7.62,-15.24 -157.48,-177.8 -246.38,-231.14 -76.2,-53.34 -68.58,-63.5 96.52,-88.9 86.36,-15.24 1069.34,-203.2 1069.34,-256.54 0,-15.24 -43.18,-15.24 -223.52,15.24 -60.96,15.24 -58.42,15.24 22.86,-104.14 91.44,-134.62 88.9,-172.72 -7.62,-45.72z"/>
  </g>
 </g>
</svg>
