<?xml version="1.0" encoding="UTF-8"?>
<!DOCTYPE svg PUBLIC "-//W3C//DTD SVG 1.1//EN" "http://www.w3.org/Graphics/SVG/1.1/DTD/svg11.dtd">
<!-- Creator: CorelDRAW 2020 (64-Bit) -->
<svg xmlns="http://www.w3.org/2000/svg" xml:space="preserve" width="189.696mm" height="189.696mm" version="1.1" style="shape-rendering:geometricPrecision; text-rendering:geometricPrecision; image-rendering:optimizeQuality; fill-rule:evenodd; clip-rule:evenodd"
viewBox="0 0 18969.6 18969.6"
 xmlns:xlink="http://www.w3.org/1999/xlink"
 xmlns:xodm="http://www.corel.com/coreldraw/odm/2003">
 <defs>
  <style type="text/css">
   <![CDATA[
    .fil1 {fill:#F8C339}
    .fil0 {fill:#E4DE84}
    .fil2 {fill:#B7DCE0}
   ]]>
  </style>
 </defs>
 <g id="Layer_x0020_1">
  <metadata id="CorelCorpID_0Corel-Layer"/>
  <path class="fil0" d="M6577.2 4707.12c-751.44,-740.4 -2069.4,-1346.4 -2944.8,-471.12 -864.84,864.96 -283.32,2162.28 444.96,2917.8 661.56,681.36 2244.48,1237.32 3033.24,462.72 729.24,-715.92 64.68,-2311.32 -533.4,-2909.4zm5847.6 8205.96l-165.48 165.48c-701.16,-699.48 252.84,252.84 -447.6,-447.36 -390.6,-390.72 -989.4,208.08 -598.68,598.68l705.84 705.48c48.84,180.96 153.84,365.16 310.92,522.12l1202.76 1203c371.28,371.04 895.68,453.48 1166.04,182.88l591.24 -590.76c270.36,-270.6 187.8,-795.12 -183.12,-1166.16l-1202.88 -1203.12c-157.08,-156.96 -341.88,-262.56 -522.96,-311.4 -656.52,-656.52 -1422.72,-1432.08 -2201.76,-2221.32l-526.8 526.92 -73.2 73.2c691.68,701.52 1367.52,1385.4 1945.68,1962.36zm-3185.88 -4425.36c-346.44,-349.68 -678.48,-683.76 -986.64,-992.04 244.68,-1183.44 -239.28,-2550 -1084.56,-3395.28 -1098.72,-1079.52 -2922.96,-1674 -4134,-463.08 -1201.56,1201.44 -625.68,3006.6 437.64,4107.84 870,895.8 2188.08,1322.76 3418.08,1113.36l981.96 996.72 598.92 -598.92 -927.48 -941.76 165.48 -165.48c289.56,289.56 603.36,605.52 931.8,937.44l598.8 -598.8zm470.16 3232.8l370.2 375.72c390.48,390.6 989.28,-208.2 598.68,-598.68l-370.08 -375.72 -598.8 598.68z"/>
  <path class="fil1" d="M9482.04 8733.36l-598.92 598.92 594.72 602.52 599.4 -599.4 -595.2 -602.04zm-769.08 769.08l-599.04 599.04 594.24 603 598.8 -598.8 -594 -603.24zm1528.44 -0.72l-599.52 599.52 594.48 603.36 600 -600 -594.96 -602.88zm-770.28 770.52l-598.8 598.92 594.24 603.12 598.8 -598.68 -594.24 -603.36z"/>
  <path class="fil2" d="M11121 4956.6c-912.72,912.96 -1194.84,2102.76 -728.04,2865.84l-2936.76 2936.76c-348.48,348.48 260.04,937.2 598.44,598.8l2909.4 -2909.4c55.08,55.08 110.52,110.4 165.6,165.48 -1488,1488.12 -2976.36,2976.6 -4464.6,4464.36l-165.36 -165.6 537.6 -537.6c390.72,-390.72 -208.32,-989.4 -598.56,-598.56l-795.36 795.36c-180.96,48.84 -365.64,154.44 -522.36,311.28l-1203.12 1203.12c-371.16,371.04 -453.72,895.56 -183.12,1165.92l591 591c270.36,270.6 795,188.16 1166.04,-182.88l1203 -1203c157.08,-157.08 262.8,-341.88 311.64,-523.08l4749.6 -4749.48c935.04,567.24 2178.6,-40.68 2865.48,-728.04l1861.2 -1861.08c165.36,-165.36 165.36,-433.32 0,-598.68 -165.36,-165.36 -433.44,-165.36 -598.56,0l-1937.28 1934.04 -850.56 -850.68 1935.36 -1935.36c165.36,-165.36 165.36,-433.2 0,-598.68 -165.36,-165.36 -433.44,-165.36 -598.68,0l-1935.36 1935.36 -851.16 -851.28 1934.52 -1936.2c165.36,-165.24 165.36,-433.32 0,-598.68 -165.12,-165.36 -433.2,-165.36 -598.68,0l-1861.32 1860.96z"/>
 </g>
</svg>
